<svg width="20" height="20" viewBox="0 0 20 20" fill="none" xmlns="http://www.w3.org/2000/svg">
<path d="M5.9375 5.46875H14.0625C14.1484 5.46875 14.2188 5.39844 14.2188 5.3125C14.2188 4.53125 14.0469 3.81445 13.7129 3.20117C13.377 2.58594 12.8828 2.0918 12.2676 1.75586C11.6543 1.42188 10.9375 1.25 10.1562 1.25H9.84375C9.0625 1.25 8.3457 1.42188 7.73242 1.75586C7.11719 2.0918 6.62305 2.58594 6.28711 3.20117C5.95312 3.81445 5.78125 4.53125 5.78125 5.3125C5.78125 5.39844 5.85156 5.46875 5.9375 5.46875Z" fill="#9BA2AE"/>
<path d="M18.3594 10H15.4688V8.04687C16.9688 8.04687 18.1836 6.83203 18.1836 5.33203C18.1836 5.24609 18.1133 5.17578 18.0273 5.17578H16.8555C16.7695 5.17578 16.6992 5.24609 16.6992 5.33203C16.6992 6.01172 16.1484 6.5625 15.4688 6.5625H4.53125C3.85156 6.5625 3.30078 6.01172 3.30078 5.33203C3.30078 5.24609 3.23047 5.17578 3.14453 5.17578H1.97266C1.88672 5.17578 1.81641 5.24609 1.81641 5.33203C1.81641 6.83203 3.03125 8.04687 4.53125 8.04687V10H1.64062C1.55469 10 1.48438 10.0703 1.48438 10.1562V11.25C1.48438 11.3359 1.55469 11.4062 1.64062 11.4062H4.53125V13.2812C4.53125 13.4082 4.53516 13.5352 4.54492 13.6582C3.20508 14.2305 2.26562 15.5605 2.26562 17.1094C2.26562 17.1953 2.33594 17.2656 2.42188 17.2656H3.51562C3.60156 17.2656 3.67188 17.1953 3.67188 17.1094C3.67188 16.2461 4.13867 15.4902 4.83594 15.084C4.95312 15.4199 5.10156 15.7402 5.2793 16.041C5.75391 16.8516 6.43164 17.5293 7.24219 18.0039C7.80664 18.334 8.43359 18.5664 9.10352 18.6777C9.18945 18.6777 9.25977 18.6074 9.25977 18.5215V9.45312C9.25977 9.36719 9.33008 9.29687 9.41602 9.29687H10.5879C10.6738 9.29687 10.7441 9.36719 10.7441 9.45312V18.5195C10.7441 18.6055 10.8145 18.6758 10.9004 18.6758C11.5703 18.5645 12.1973 18.332 12.7617 18.002C13.5723 17.5273 14.25 16.8496 14.7246 16.0391C14.9023 15.7363 15.0508 15.416 15.168 15.082C15.8613 15.4902 16.3281 16.2461 16.3281 17.1094C16.3281 17.1953 16.3984 17.2656 16.4844 17.2656H17.5781C17.6641 17.2656 17.7344 17.1953 17.7344 17.1094C17.7344 15.5605 16.7949 14.2305 15.4551 13.6582C15.4629 13.5332 15.4688 13.4082 15.4688 13.2812V11.4062H18.3594C18.4453 11.4062 18.5156 11.3359 18.5156 11.25V10.1562C18.5156 10.0703 18.4453 10 18.3594 10Z" fill="#9BA2AE"/>
</svg>
