<svg width="33" height="33" viewBox="0 0 33 33" fill="none" xmlns="http://www.w3.org/2000/svg">
<g clip-path="url(#clip0_101_20)">
<path d="M23.867 1.3026C22.391 1.3026 20.9537 1.47533 19.5615 1.78728L19.497 1.70607C19.4455 1.75055 19.3875 1.79502 19.3359 1.83949C14.6695 2.94486 10.5896 5.62805 7.68923 8.66894C5.5178 10.9506 3.99091 13.432 3.36893 15.6879C3.05827 16.8094 2.97319 17.8857 3.18267 18.859C3.39278 19.8258 3.91872 20.683 4.75726 21.276C5.16073 21.5596 5.65315 21.6047 6.13011 21.5467C6.60642 21.4887 7.1027 21.3275 7.63767 21.102C8.71403 20.6637 9.95153 19.974 11.2857 19.2844C13.8187 17.976 16.6804 16.7062 19.0845 16.9641L19.0072 16.9254C18.5625 16.674 18.2724 16.2615 18.1049 15.7717C17.1509 15.8039 16.1906 16.0037 15.2431 16.2937C14.9338 15.559 14.6953 14.85 14.5406 14.1475C15.675 13.6898 16.8416 13.2838 18.0404 12.9229C18.1177 12.5039 18.2209 12.0656 18.3498 11.6145C16.9769 12.0076 15.6492 12.4588 14.3601 12.968C14.2634 11.9174 14.3666 10.8797 14.6824 9.84199C16.3582 9.17812 18.0597 8.59805 19.7613 8.15332C19.8838 7.91484 20.0191 7.66992 20.1545 7.43144C20.2834 7.20586 20.4123 6.98027 20.5476 6.76758C18.7623 7.17363 17.0027 7.72148 15.2625 8.36601C15.6685 7.54746 16.2164 6.70957 16.9189 5.85428C18.5754 5.47658 20.2318 5.21877 21.6562 5.11887C21.9849 4.68316 22.3136 4.27711 22.6488 3.90521C21.3404 3.91682 19.8258 4.096 18.2531 4.3899C18.7365 3.90586 19.2715 3.41473 19.858 2.91586C21.1535 2.62646 22.4941 2.46598 23.867 2.46404C23.9636 2.46404 24.0603 2.46404 24.1506 2.47049C24.7306 2.01545 25.3043 1.67449 25.8586 1.48113C25.9166 1.4618 25.9746 1.44439 26.0326 1.42828C25.3043 1.34514 24.5759 1.30518 23.867 1.30518V1.3026ZM27.9275 1.94971C27.6181 1.94326 27.2959 2.00514 26.98 2.11342C26.4709 2.28937 25.9552 2.58844 25.4332 2.98353C25.1947 3.13371 24.9498 3.31482 24.692 3.52881C23.5447 4.48529 22.2556 6.06762 21.1664 7.99863C20.0707 9.93222 19.381 11.8465 19.149 13.3289C19.0974 13.6576 19.0717 13.967 19.0588 14.2441C18.9943 14.8951 19.0072 15.4945 19.1168 16.0166C19.2134 16.4613 19.3875 16.8738 19.6711 17.1896L11.782 31.1309L12.7875 31.698L20.6765 17.7568C21.0955 17.8342 21.5402 17.7762 21.9656 17.6279C22.5908 17.4152 23.2289 17.0156 23.8799 16.4742C25.1754 15.385 26.5224 13.7156 27.6697 11.6789C28.8234 9.64863 29.5646 7.63125 29.8289 5.95933C29.9578 5.12853 29.9707 4.37314 29.8353 3.72539C29.6935 3.07764 29.3777 2.49885 28.8234 2.18432C28.5463 2.02769 28.2433 1.95551 27.9275 1.94971ZM27.8953 3.106C28.0371 3.106 28.1595 3.14016 28.2498 3.1943C28.4431 3.30193 28.6043 3.52687 28.7009 3.96773C28.7912 4.41117 28.7912 5.04023 28.6752 5.78209C28.4496 7.25742 27.7535 9.17812 26.6642 11.1117C25.5685 13.0389 24.2859 14.6244 23.1322 15.5848C22.5586 16.0617 22.0172 16.384 21.5918 16.5322C21.1599 16.6805 20.8892 16.6547 20.6959 16.5451C20.509 16.442 20.3414 16.2164 20.2447 15.7717C20.1545 15.3334 20.1545 14.7018 20.2705 13.9605C20.5025 12.4846 21.1922 10.5639 22.2879 8.63672C23.3771 6.70312 24.6662 5.12016 25.8134 4.16303C26.3935 3.68156 26.9285 3.35736 27.3539 3.2059C27.573 3.135 27.747 3.10471 27.8953 3.106ZM17.3572 3.64869C16.9705 4.03799 16.6095 4.42535 16.2808 4.81207C15.2174 5.06666 14.1668 5.36314 13.1806 5.69379C14.4761 4.88555 15.8748 4.18687 17.3572 3.64869ZM15.1271 6.31318C14.5341 7.19297 14.0765 8.07598 13.7543 8.95898C12.1623 9.60351 10.6025 10.3254 9.07497 11.0795C9.35856 10.1643 9.77106 9.18457 10.3318 8.12754C11.5951 7.47012 13.3095 6.83203 15.1271 6.31318ZM8.33376 9.67441C8.05017 10.4027 7.83747 11.1053 7.68923 11.782C7.12849 12.0721 6.57419 12.3621 6.03085 12.6521C6.65153 11.6596 7.43142 10.6541 8.33376 9.67441ZM13.3547 10.3834C13.1484 11.3953 13.1226 12.4072 13.2515 13.432C11.6918 14.1023 10.1965 14.85 8.73981 15.675C8.64958 15.2174 8.59157 14.7404 8.58513 14.2441C8.57868 13.7092 8.61735 13.1484 8.72048 12.5619C10.2287 11.7885 11.782 11.0537 13.3547 10.3834ZM7.46364 13.2064C7.43142 13.5674 7.41852 13.9219 7.42497 14.2635C7.43786 14.9725 7.53454 15.6428 7.69567 16.2873C6.53552 16.9834 5.40243 17.7311 4.29706 18.5109C4.16493 17.8084 4.22552 16.9447 4.48784 15.9908C4.61739 15.5203 4.79657 15.0305 5.02151 14.5277C5.82267 14.083 6.63864 13.6447 7.46364 13.2064ZM13.4642 14.5986C13.6254 15.2883 13.8574 15.9779 14.1539 16.674C12.9679 17.1316 11.8207 17.7053 10.7508 18.2531C10.5123 18.3756 10.2802 18.498 10.0547 18.6205C9.6486 18.0469 9.31989 17.4539 9.08141 16.8223C10.4929 16.0037 11.9496 15.2625 13.4642 14.5986ZM8.07595 17.4152C8.32731 18.0275 8.64313 18.6076 9.01696 19.1555C8.34665 19.5035 7.73434 19.8129 7.19938 20.032C6.71599 20.2318 6.29511 20.3607 5.98767 20.3994C5.68022 20.4381 5.51909 20.393 5.42628 20.3221C5.14075 20.1223 4.91259 19.8902 4.7347 19.626C5.82202 18.8461 6.92868 18.1049 8.07595 17.4152Z" fill="#DAE9FD"/>
</g>
<defs>
<clipPath id="clip0_101_20">
<rect width="33" height="33" fill="white"/>
</clipPath>
</defs>
</svg>
